<?xml version="1.0" encoding="utf-8"?>
<!-- Generator: Adobe Illustrator 21.0.0, SVG Export Plug-In . SVG Version: 6.00 Build 0)  -->
<svg version="1.1" id="Layer_1" xmlns="http://www.w3.org/2000/svg" xmlns:xlink="http://www.w3.org/1999/xlink" x="0px" y="0px"
	 viewBox="0 0 3060 792" style="enable-background:new 0 0 3060 792;" xml:space="preserve">
<style type="text/css">
	.st0{fill:#FFFFFF;}
</style>
<g>
	<g>
		<g>
			<path class="st0" d="M2908.1,87v6.4h-19.2v54.5h-7.9V93.4h-19.2V87H2908.1z M2916.1,147.9V87h10l22.4,50.8l21.9-50.8h9.6v60.9
				h-7.1V98.7l-21.6,49.1h-6.2l-22-49.1v49.1L2916.1,147.9L2916.1,147.9z"/>
		</g>
		<g>
			<path class="st0" d="M1133.9,32.1h55.6v222.5c14.8-23.8,38.1-43.8,69.9-60c31.8-16.1,62.8-24.2,93-24.2c30.2,0,58.5,5.7,85,17.1
				c26.5,11.4,49.7,27,69.5,46.9c19.9,19.9,35.5,43,46.9,69.5c11.4,26.5,17.1,54.8,17.1,85c0,30.2-5.7,58.5-17.1,85
				c-11.4,26.5-27,49.7-46.9,69.5c-19.9,19.9-43,35.5-69.5,46.9c-26.5,11.4-54.8,17.1-85,17.1s-58.5-5.7-85-17.1
				c-26.5-11.4-49.7-27-69.5-46.9c-19.9-19.9-35.5-43-46.9-69.5c-11.4-26.5-17.1-54.8-17.1-85L1133.9,32.1L1133.9,32.1z
				 M1189.5,388.9c0,22.2,4.2,43.3,12.7,63.2c8.5,19.9,20.1,37.2,35,52c14.8,14.8,32.2,26.5,52,35c19.9,8.5,40.9,12.7,63.2,12.7
				c22.2,0,43.3-4.2,63.2-12.7c19.9-8.5,37.2-20.1,52-35c14.8-14.8,26.5-32.2,35-52c8.5-19.9,12.7-40.9,12.7-63.2
				c0-22.2-4.2-43.3-12.7-63.2c-8.5-19.9-20.1-37.2-35-52c-14.8-14.8-32.2-26.5-52-35c-19.9-8.5-40.9-12.7-63.2-12.7
				c-22.2,0-43.3,4.2-63.2,12.7c-19.9,8.5-37.2,20.1-52,35c-14.8,14.8-26.5,32.2-35,52C1193.7,345.6,1189.5,366.6,1189.5,388.9z"/>
			<path class="st0" d="M1749.2,65.5c0-9.5,3.2-17.5,9.5-23.8c6.4-6.4,14.3-9.5,23.8-9.5c9.5,0,17.5,3.2,23.8,9.5
				c6.4,6.4,9.5,14.3,9.5,23.8c0,9.5-3.2,17.5-9.5,23.8c-6.4,6.4-14.3,9.5-23.8,9.5c-9.5,0-17.5-3.2-23.8-9.5
				C1752.4,83,1749.2,75.1,1749.2,65.5z M1753.9,191h55.6v397.2h-55.6V191z"/>
			<path class="st0" d="M2294.8,409.5V191h55.6v218.5c0,24.4-4.6,47.4-13.9,69.1c-9.3,21.7-22,40.7-38.1,56.8
				c-16.2,16.2-35.1,29-56.8,38.5c-13.2,5.8-27,10.1-41.3,12.7l0.8,179.5h-56.4l-0.8-179.5c-14.3-2.6-27.8-6.9-40.5-12.7
				c-21.7-9.5-40.7-22.4-56.8-38.5c-16.2-16.2-29-35.1-38.5-56.8c-9.5-21.7-14.3-44.8-14.3-69.1v-0.8l-0.8-217.7h57.2l0.8,217.7v0.8
				c0,17,3.2,32.8,9.5,47.7c6.4,14.8,15.1,27.7,26.2,38.5c11.1,10.9,24,19.5,38.5,25.8c14.6,6.4,30.3,9.5,47.3,9.5
				c16.9,0,32.8-3.2,47.7-9.5c14.8-6.4,27.8-15,38.9-25.8c11.1-10.8,19.9-23.7,26.2-38.5C2291.6,442.4,2294.8,426.5,2294.8,409.5z"
				/>
			<path class="st0" d="M2528.6,388.9c0-30.2,5.7-58.5,17.1-85c11.4-26.5,27-49.7,46.9-69.5c19.9-19.9,43-35.5,69.5-46.9
				c26.5-11.4,54.8-17.1,85-17.1c30.2,0,58.5,5.7,85,17.1c26.5,11.4,49.7,27,69.5,46.9c19.9,19.9,35.5,43,46.9,69.5
				c11.4,26.5,17.1,54.8,17.1,85c0,30.2-5.7,58.5-17.1,85c-11.4,26.5-27,49.7-46.9,69.5c-19.9,19.9-43,35.5-69.5,46.9
				c-26.5,11.4-54.8,17.1-85,17.1c-30.2,0-58.5-5.7-85-17.1c-26.5-11.4-49.7-27-69.5-46.9c-19.9-19.9-35.5-43-46.9-69.5
				C2534.3,447.4,2528.6,419.1,2528.6,388.9z M2584.2,388.9c0,22.2,4.2,43.3,12.7,63.2c8.5,19.9,20.1,37.2,35,52
				c14.8,14.8,32.2,26.5,52,35c19.9,8.5,40.9,12.7,63.2,12.7c22.2,0,43.3-4.2,63.2-12.7c19.9-8.5,37.2-20.1,52-35
				c14.8-14.8,26.5-32.2,35-52c8.5-19.9,12.7-40.9,12.7-63.2c0-22.2-4.2-43.3-12.7-63.2c-8.5-19.9-20.1-37.2-35-52
				c-14.8-14.8-32.2-26.5-52-35c-19.9-8.5-40.9-12.7-63.2-12.7c-22.2,0-43.3,4.2-63.2,12.7c-19.9,8.5-37.2,20.1-52,35
				c-14.8,14.8-26.5,32.2-35,52C2588.4,345.6,2584.2,366.6,2584.2,388.9z"/>
		</g>
	</g>
	<g>
		<path class="st0" d="M899.7,394.2c0,15.6,12.6,28.2,28.2,28.2c15.6,0,28.2-12.6,28.2-28.2c0-15.6-12.6-28.2-28.2-28.2
			C912.4,366,899.7,378.6,899.7,394.2z"/>
		<path class="st0" d="M590.6,365c-15.6,0-28.2,12.7-28.2,28.2v234.4c0,15.6,12.6,28.2,28.2,28.2c15.6,0,28.2-12.6,28.2-28.2V393.2
			C618.8,377.7,606.2,365,590.6,365z"/>
		<path class="st0" d="M674.9,406.3c-15.6,0-28.2,12.7-28.2,28.2v148.6c0,15.6,12.6,28.2,28.2,28.2c15.6,0,28.2-12.6,28.2-28.2
			V434.5C703.2,418.9,690.5,406.3,674.9,406.3z"/>
		<path class="st0" d="M759.3,418.4c-15.6,0-28.2,12.6-28.2,28.2v76.9c0,15.6,12.6,28.2,28.2,28.2s28.2-12.6,28.2-28.2v-76.9
			C787.5,431,774.9,418.4,759.3,418.4z"/>
		<path class="st0" d="M843.6,398.8c-15.6,0-28.2,12.6-28.2,28.2v41.3c0,15.6,12.6,28.2,28.2,28.2c15.6,0,28.2-12.7,28.2-28.2V427
			C871.9,411.4,859.2,398.8,843.6,398.8z"/>
		<path class="st0" d="M506.2,271c-15.6,0-28.2,12.7-28.2,28.2v199.3c0,15.6,12.6,28.2,28.2,28.2c15.6,0,28.2-12.6,28.2-28.2V299.2
			C534.5,283.6,521.8,271,506.2,271z"/>
		<path class="st0" d="M421.9,140.6c-15.6,0-28.2,12.6-28.2,28.2v234.4c0,15.6,12.6,28.2,28.2,28.2c15.6,0,28.2-12.6,28.2-28.2
			V168.8C450.1,153.2,437.5,140.6,421.9,140.6z"/>
		<path class="st0" d="M112.7,414.1c0-15.6-12.6-28.2-28.2-28.2c-15.6,0-28.2,12.6-28.2,28.2s12.6,28.2,28.2,28.2
			C100.1,442.3,112.7,429.7,112.7,414.1z"/>
		<path class="st0" d="M337.5,189c-15.6,0-28.2,12.6-28.2,28.2v148.6c0,15.6,12.6,28.2,28.2,28.2c15.6,0,28.2-12.6,28.2-28.2V217.2
			C365.8,201.6,353.1,189,337.5,189z"/>
		<path class="st0" d="M253.2,254.5c-15.6,0-28.2,12.6-28.2,28.2v76.9c0,15.6,12.6,28.2,28.2,28.2c15.6,0,28.2-12.6,28.2-28.2v-76.9
			C281.4,267.1,268.8,254.5,253.2,254.5z"/>
		<path class="st0" d="M168.8,307.7c-15.6,0-28.2,12.6-28.2,28.2v41.3c0,15.6,12.6,28.2,28.2,28.2c15.6,0,28.2-12.6,28.2-28.2V336
			C197.1,320.4,184.4,307.7,168.8,307.7z"/>
	</g>
</g>
</svg>
